<svg id="location-point" xmlns="http://www.w3.org/2000/svg" viewBox="0 0 17 20.9"><circle cx="8" cy="8.2" r="3.4" style="fill:#fff"/><polyline points="7.1 1 7.6 4.6 5.4 6.1 5.1 9 6.4 11.4 9.7 12.5 12.2 10.2 12.4 7.6 11.2 5.6 9.5 4.8 8.2 5 7.6 4.6 7.1 1 6.6 0.7 8.8 0.7 12.6 1.8 14.7 4.4 15.9 10.5 13.4 14.8 8.9 18.9 7.6 18.7 4.6 15.5 2 12 1.4 9.7 1.3 6.9 3 3.7 4.5 2.4 5.4 1.4 6.4 0.7" style="fill:#ff9ca2"/><path d="M18,4.5a8.5,8.5,0,0,0-12,12l5.3,6.1a1,1,0,0,0,1.4,0h0L18,16.4A8.4,8.4,0,0,0,18,4.5ZM16.6,15,12,20.4,7.4,15a6.5,6.5,0,1,1,9.2,0ZM9,7.4a4.3,4.3,0,0,0,6.1,6.1,4.8,4.8,0,0,0,1.3-3,4.3,4.3,0,0,0-1.3-3A4.3,4.3,0,0,0,9,7.4Zm4.7,4.7a2.3,2.3,0,1,1,0-3.3,2.4,2.4,0,0,1,.7,1.7,2.5,2.5,0,0,1-.8,1.6Z" transform="translate(-3.5 -2)" style="fill:#ce8695"/></svg>