<svg id="Capa_1" data-name="Capa 1" xmlns="http://www.w3.org/2000/svg" viewBox="0 0 364 96.3"><path d="M220.4,380.1c38,.5,76,1,114,2.5,18.8.7,37.7,1.8,56.5,3s37.3,2.2,56,2.4c21,.1,42-.9,62.8-4.2a2.3,2.3,0,0,0,1.7-1.7c4.9-17.7,25.2-29,42.8-23.8l-1.8-2.4c-.2,4.7-.3,9.5-2,13.9s-4.7,7.3-6.7,11.1-2.7,7.4-1.5,11.1,3.8,5.5,7,6.9c1.7.7,6.4,2,5.3,4.7s-6.5,4-9.3,4.5a29.2,29.2,0,0,1-34.3-29.4c0-3.2-5-3.2-5,0a35.7,35.7,0,0,0,9.9,24.6,34.4,34.4,0,0,0,24.9,10.2,30.5,30.5,0,0,0,13.3-3c3.6-1.9,6.8-5.8,5.2-10.1s-4.9-4.6-8-6c-1.5-.7-3.1-1.4-3.9-2.9a7.2,7.2,0,0,1-.4-5c1.1-5.2,5.5-9,7.6-13.7s2.7-11.1,2.8-16.9a2.5,2.5,0,0,0-1.8-2.4c-15.7-4.6-33.2,2.3-42.9,15.2a34.3,34.3,0,0,0-6,12.1l1.7-1.7c-36.7,5.8-74.2,4.1-111.2,1.9s-75.3-4-113-4.8q-31.8-.7-63.7-1c-3.2-.1-3.2,4.9,0,4.9Z" transform="translate(-218 -351.9)" style="fill:#ff9ca2"/><path d="M559.1,357.4a10.5,10.5,0,0,1,9.9,1.9c3.1,2.4,4.8,6.1,5.6,9.9a25.6,25.6,0,0,1,.7,6.2,13.6,13.6,0,0,1-1.9,6.5,70,70,0,0,1-5.8,9.8c-2.4,3-5.3,5.6-9.1,6.7s-1.8,5.6,1.3,4.8c8.9-2.6,13.9-11,17.8-18.7a19.9,19.9,0,0,0,2.6-7.9,30.1,30.1,0,0,0-.6-7.9c-.9-4.8-3.1-9.6-6.8-12.7s-9.8-5.3-15-3.4a2.5,2.5,0,0,0-1.7,3.1,2.4,2.4,0,0,0,3,1.7Z" transform="translate(-218 -351.9)" style="fill:#ff9ca2"/><path d="M574.1,387.4c2.4,4.7,5.5,11.6-.6,14.9a35.7,35.7,0,0,1-8,2.6c-3.1.7-6.3,1-9.3-.3-1.2-.5-2.7.6-3,1.8a2.5,2.5,0,0,0,1.7,3c3.8,1.6,8,1.2,11.9.2s7.2-1.7,10.2-3.6a11.7,11.7,0,0,0,5.1-9.6c0-4.1-1.9-7.9-3.7-11.5s-5.8-.3-4.3,2.5Z" transform="translate(-218 -351.9)" style="fill:#ff9ca2"/><path d="M551,375.3a1.4,1.4,0,0,1,1.5.2A4.3,4.3,0,0,1,554,377a10.4,10.4,0,0,1,1.5,5.1,14.5,14.5,0,0,1-3.5,10.1,2.5,2.5,0,0,0,3.5,3.5,18.9,18.9,0,0,0,4.8-14.9,13.6,13.6,0,0,0-3-7.7c-1.9-2.2-4.8-3.5-7.6-2.5a2.4,2.4,0,1,0,1.3,4.7Z" transform="translate(-218 -351.9)" style="fill:#ff9ca2"/><path d="M553.8,368.3a21.5,21.5,0,0,1,10.9,6.5,24.4,24.4,0,0,1,3.5,5.3A22.2,22.2,0,0,1,570,386a2.5,2.5,0,0,0,5,0,26.8,26.8,0,0,0-19.9-22.5c-3.1-.8-4.4,4-1.3,4.8Z" transform="translate(-218 -351.9)" style="fill:#ff9ca2"/><path d="M547.3,382.9c-1-5.9-5.1-11-10.2-14s-13.2-3.8-19.9-2.6a2.7,2.7,0,0,0-1.8,3.1,2.5,2.5,0,0,0,3.1,1.7c5.4-1,11.3-.6,16.1,2.1a16,16,0,0,1,7.9,11,2.5,2.5,0,1,0,4.8-1.3Z" transform="translate(-218 -351.9)" style="fill:#ff9ca2"/><path d="M409.6,389.4c8.5,5.4,17.9,11.1,28.3,10.5,2.7-.1,5.5-.9,8.2-.5a13.4,13.4,0,0,1,5.4,2.5c3.5,2.6,6.2,6.3,8.9,9.8a68,68,0,0,1,4.8,7.1c.7,1.2,1.3,2.4,1.9,3.7l.6,1.8.3,1.1v.3c.1-.4,0-.4-.1,0l.6-1.1c-.3.3-.2.3.2,0s0-.1-.3,0a4.9,4.9,0,0,0-1.7-.1l-3.9-.2-7.1-.3c-4.2-.3-8.1-1.1-11.3-4a37,37,0,0,1-6.4-9.2c-2.2-4.3-4.2-8.7-6.3-13a2.6,2.6,0,0,0-3.4-.9,2.5,2.5,0,0,0-.9,3.4c2.2,4.4,4.3,8.9,6.5,13.3a38.6,38.6,0,0,0,7,9.9,21,21,0,0,0,12.6,5.3l7.3.4c2.5.1,5.1.4,7.6.3s4.6-1.5,4.5-4.1-1.4-4.9-2.4-7c-2.1-4.3-5-8-7.9-11.8a46.4,46.4,0,0,0-8.7-9,17.5,17.5,0,0,0-12.7-3,33.9,33.9,0,0,1-7.8.2,32.9,32.9,0,0,1-7.6-2.1c-4.9-1.9-9.4-4.8-13.8-7.6-2.7-1.7-5.2,2.6-2.5,4.3Z" transform="translate(-218 -351.9)" style="fill:#ff9ca2"/><path d="M407.8,389.2c2.1,1.4,3.1,3.8,3.9,6.1s1.5,5.9,2.4,8.7a30.5,30.5,0,0,0,4.8,8.4c1.8,2.3,4,4.6,5.2,7.4s.2,6.4-.9,9.6-2.7,8.3-4.1,12.4c-.1.3-.3,1.2-.6,1.4h.1l-.4-.4a23,23,0,0,1-2.5-4.3,52.9,52.9,0,0,1-4.3-10.8c-1.6-6.3-.7-14.3,5.3-18,2.7-1.7.2-6-2.5-4.3-6.6,4-9.3,12.2-8.3,19.6a46.1,46.1,0,0,0,4.1,13.2c1,1.9,1.9,4,3,5.9s2.5,3.4,4.5,3.9c5.3,1.4,6.6-5.5,7.8-9.1l2.4-7.3a32,32,0,0,0,1.9-6.9c.5-3.9-.9-7.5-3.2-10.7s-4.6-5.5-6.3-8.6-2.4-7.2-3.4-10.8-3-7.3-6.4-9.7a2.5,2.5,0,0,0-3.4.9,2.6,2.6,0,0,0,.9,3.4Z" transform="translate(-218 -351.9)" style="fill:#ff9ca2"/></svg>